<svg xmlns="http://www.w3.org/2000/svg" width="180.031" height="54.063" viewBox="0 0 180.031 54.063">
  <defs>
    <style>
      .cls-1 {
        fill: #1b1b1b;
        fill-rule: evenodd;
      }
    </style>
  </defs>
  <path id="parasprite" class="cls-1" d="M283.555,337.5a4.232,4.232,0,0,0-1.2-1.3,4.585,4.585,0,0,0-1.722-.773,11.455,11.455,0,0,0-2.532-.141,19.374,19.374,0,0,0-3.48.387,29.445,29.445,0,0,0-3.129.808q-1.582.494-3.094,1.125-1.512.6-2.953,1.266-1.194.6-2.355,1.3a8.48,8.48,0,0,0-1.969,1.582,2.245,2.245,0,0,0-.633.984,1.835,1.835,0,0,0-.035.352,1.1,1.1,0,0,0,.141.387,1.132,1.132,0,0,0,.386.351,1.275,1.275,0,0,0,.668.035q0.739-.1,1.512-0.281c0.07-.023.153-0.047,0.246-0.07q0.6-.141,1.231-0.282V343.2a0.584,0.584,0,0,0,.351-0.193,0.539,0.539,0,0,0,.141-0.369,0.634,0.634,0,0,0-.176-0.44,0.553,0.553,0,0,0-.422-0.193,0.1,0.1,0,0,0-.07.035l-0.035.035v-0.035l-0.563.07c-0.164.024-.339,0.048-0.527,0.071a2.353,2.353,0,0,0,.246-0.211,3.283,3.283,0,0,1,.422-0.281,22.787,22.787,0,0,1,2.215-1.2q1.406-.667,2.847-1.23,1.478-.6,2.953-1.09a27.479,27.479,0,0,1,2.954-.738,18.2,18.2,0,0,1,3.164-.352,12.742,12.742,0,0,1,2.109.106,3.1,3.1,0,0,1,1.02.457,3.315,3.315,0,0,1,.7.808,3.668,3.668,0,0,1,.422,1.16,11.735,11.735,0,0,1,.105,2,6.925,6.925,0,0,1-.422,2.18,17.284,17.284,0,0,1-.984,2.109q-0.774,1.337-1.653,2.567-0.808,1.125-1.652,2.215a13.344,13.344,0,0,1-1.371,1.441q-0.036-.738-0.07-1.477-0.107-1.371-.176-2.777-0.141-2.918-.387-5.836a0.278,0.278,0,0,0-.035-0.105q-0.071-.633-0.105-1.231a0.738,0.738,0,0,0-.211-0.422,0.6,0.6,0,0,0-1.02.422q-0.07.7-.1,1.371-0.072,2.954.07,5.907,0.105,2.075.246,4.148,0.035,0.633.07,1.23a1.458,1.458,0,0,0-.175.071q-0.352.141-.7,0.246-0.562.141-1.16,0.246a0.318,0.318,0,0,0-.14-0.035H272.41v0.035l-0.035-.035H272.34a0.42,0.42,0,0,0-.422.422,0.4,0.4,0,0,0,.105.263,0.315,0.315,0,0,0,.247.123v0.036c0.093,0.023.175,0.047,0.246,0.07q0.738,0.07,1.441.07a4.519,4.519,0,0,0,.809-0.07q0.034,0.421.035,0.844,0.035,0.492.07,1.019,0.212,3.516.317,7.067,0.105,2.987.105,5.941,0,2.038-.07,4.078a8.089,8.089,0,0,1-.211,1.477,0.548,0.548,0,0,1-.141-0.106q-0.351-.282-0.7-0.6a14.158,14.158,0,0,1-1.371-1.512l-0.211-.281a3.346,3.346,0,0,1-.176-0.422l0.035-.035a0.366,0.366,0,0,1,.071-0.106,4.584,4.584,0,0,0,.984-1.23,8.956,8.956,0,0,0,.809-1.723,6.9,6.9,0,0,1,.457-1.16c0.046-.071.093-0.141,0.14-0.211a0.1,0.1,0,0,1,.035-0.07h-0.035a0.3,0.3,0,0,0,.106-0.211,0.42,0.42,0,0,0-.422-0.422,0.346,0.346,0,0,0-.317.175h-0.035a0.1,0.1,0,0,0-.035.071,1.128,1.128,0,0,0-.141.176,9.49,9.49,0,0,0-.738,1.23q-0.421.7-.914,1.371a3.334,3.334,0,0,1-.844.774,1.808,1.808,0,0,0-.808.914,1.741,1.741,0,0,0-.035.351,2.525,2.525,0,0,0,.351,1.3,3.467,3.467,0,0,0,.281.422,17.149,17.149,0,0,0,1.583,1.828,8.087,8.087,0,0,0,1.335,1.195,0.932,0.932,0,0,0,.317.211,4.031,4.031,0,0,0,.492.176,1.22,1.22,0,0,0,.633-0.105,0.968,0.968,0,0,0,.316-0.211,2.4,2.4,0,0,0,.7-1.2,9.106,9.106,0,0,0,.282-1.968q0.069-2.076.07-4.184,0-2.988-.07-5.977-0.072-3.585-.317-7.136-0.035-.739-0.07-1.442c-0.024-.351-0.047-0.7-0.07-1.054a1.935,1.935,0,0,0,.281-0.176,4.937,4.937,0,0,0,.633-0.422,11.056,11.056,0,0,0,1.722-1.582q0.915-1.125,1.758-2.32,0.95-1.3,1.793-2.707a22.173,22.173,0,0,0,1.125-2.391,8.266,8.266,0,0,0,.492-2.813,13.173,13.173,0,0,0-.14-2.355,5.549,5.549,0,0,0-.668-1.793h0Zm22.359,22.254c-0.07-.141-0.141-0.281-0.211-0.422s-0.141-.281-0.211-0.422q-0.387-.843-0.738-1.687-0.387-.984-0.738-2-0.353-1.161-.633-2.321-0.282-1.264-.492-2.531-0.248-1.651-.422-3.305-0.282-3.093-.528-6.187c-0.047-.515-0.1-1.02-0.175-1.512q-0.072-.772-0.176-1.547a0.822,0.822,0,0,0-.264-0.527,0.809,0.809,0,0,0-1.09,0,0.852,0.852,0,0,0-.263.563v0.316a0.793,0.793,0,0,1,.035.246,16.5,16.5,0,0,1-.141,2.637q-0.21,1.266-.527,2.5-0.352,1.2-.774,2.39-0.492,1.266-1.054,2.532-0.669,1.476-1.407,2.918-0.668,1.3-1.441,2.531a10.014,10.014,0,0,1-1.195,1.441,1.187,1.187,0,0,1-.774.352,2.889,2.889,0,0,1-.984-0.176,2.7,2.7,0,0,1-.773-0.492,4.9,4.9,0,0,1-.809-1.16,11.281,11.281,0,0,1-.914-2.039,19.685,19.685,0,0,1-.668-2.567,13.936,13.936,0,0,1-.281-2.425q0-1.161.07-2.286a8.626,8.626,0,0,1,.316-1.757,7.634,7.634,0,0,1,.528-1.266,7.171,7.171,0,0,1,.843-1.09,10.161,10.161,0,0,1,1.336-1.3,13.958,13.958,0,0,1,1.653-1.16,16.963,16.963,0,0,1,2.144-1.125,17.645,17.645,0,0,1,2.074-.844,6.166,6.166,0,0,1,1.442-.316q0.913-.034,1.828,0a6.52,6.52,0,0,1,1.512.176,2.409,2.409,0,0,1,.7.316,0.192,0.192,0,0,0,.246.035,0.644,0.644,0,0,0,.035.211,0.671,0.671,0,0,0,.035.211v0.035a0.106,0.106,0,0,0-.035.071,0.516,0.516,0,0,0,.176.4,0.611,0.611,0,0,0,.422.158,0.51,0.51,0,0,0,.351-0.123,0.547,0.547,0,0,0,.176-0.334h0.035a0.143,0.143,0,0,0,.035-0.105,1.811,1.811,0,0,0,.176-0.282c0.023-.093.047-0.2,0.071-0.316a1.774,1.774,0,0,0-.422-1.195,3.581,3.581,0,0,0-1.336-.949,7.051,7.051,0,0,0-2.075-.387,20.618,20.618,0,0,0-2.074-.035,7.856,7.856,0,0,0-1.933.386,22.641,22.641,0,0,0-2.356.914q-1.2.564-2.355,1.231a19.1,19.1,0,0,0-1.934,1.371,18.828,18.828,0,0,0-1.547,1.512,9.53,9.53,0,0,0-1.125,1.441,12.076,12.076,0,0,0-.7,1.723,10.276,10.276,0,0,0-.387,2.25q-0.07,1.2-.07,2.426a13.392,13.392,0,0,0,.317,2.882,24.665,24.665,0,0,0,.738,2.813,13.192,13.192,0,0,0,1.09,2.426,7.193,7.193,0,0,0,1.195,1.582,3.991,3.991,0,0,0,1.547.914,4.264,4.264,0,0,0,1.793.246c0.187-.023.363-0.047,0.527-0.07a3.735,3.735,0,0,0,1.477-.915,9.46,9.46,0,0,0,1.406-1.793q0.808-1.335,1.512-2.742,0.738-1.511,1.371-3.093,0.492-1.3.949-2.637c0.07-.211.141-0.434,0.211-0.668a2.711,2.711,0,0,1,.1-0.422c0.023,0.281.036,0.551,0.036,0.809q0.035,0.563.07,1.089,0.175,1.724.457,3.446,0.246,1.337.562,2.636,0.351,1.266.774,2.5,0.421,1.055.949,2.109a7.419,7.419,0,0,0,1.16,1.687q0.316,0.351.633,0.739l0.035-.035a0.451,0.451,0,0,0,.422.281,0.482,0.482,0,0,0,.369-0.176,0.565,0.565,0,0,0,.158-0.387,0.38,0.38,0,0,0-.1-0.281Zm16.453-23.52a0.71,0.71,0,0,1,.141.457,0.609,0.609,0,0,1-.158.422,0.483,0.483,0,0,1-.37.176,0.624,0.624,0,0,1-.281-0.07,0.5,0.5,0,0,0-.211-0.035q-0.387-.071-0.808-0.106-1.2,0-2.426.035a11.514,11.514,0,0,0-2.531.422,7.079,7.079,0,0,0-1.793.985,9.842,9.842,0,0,0-1.512,1.3,16.283,16.283,0,0,0-1.406,1.934,15.5,15.5,0,0,0-1.3,2.566,13.756,13.756,0,0,0-.7,2.426,20.8,20.8,0,0,0-.211,2.953v0.422q0.034,2.145.1,4.359c0.023,0.235.036,0.493,0.036,0.774,0,0.258-.013.527-0.036,0.808l-0.07.317a2.887,2.887,0,0,1-.246.457,1.035,1.035,0,0,1-.563.351h-0.175a1.053,1.053,0,0,1-.563-0.175,1.369,1.369,0,0,1-.527-0.879,14.031,14.031,0,0,1-.281-2q-0.141-1.687-.141-3.41,0-2.075-.106-4.078-0.071-2-.281-3.973a26.177,26.177,0,0,1-.176-3.023v-0.528l0.071-1.23a0.7,0.7,0,0,1,.193-0.492,0.563,0.563,0,0,1,.879,0,0.7,0.7,0,0,1,.193.492l0.071,1.23q0.14,1.617.386,3.235c0.071,0.445.141,0.891,0.211,1.335l0.141-.351a18.089,18.089,0,0,1,1.512-2.918,17.689,17.689,0,0,1,1.652-2.18,11.772,11.772,0,0,1,1.863-1.582,10,10,0,0,1,2.285-1.16,11.555,11.555,0,0,1,2.672-.316h0.317a14.357,14.357,0,0,1,2.672.246,4.826,4.826,0,0,1,1.125.492l0.211,0.211a0.6,0.6,0,0,1,.14.1h0Zm17.367,23.52-0.211-.422-0.211-.422q-0.387-.843-0.738-1.687-0.387-.984-0.738-2-0.353-1.161-.633-2.321-0.282-1.264-.492-2.531-0.246-1.651-.422-3.305-0.282-3.093-.527-6.187c-0.048-.515-0.106-1.02-0.176-1.512q-0.071-.772-0.176-1.547a0.812,0.812,0,0,0-.264-0.527,0.808,0.808,0,0,0-1.089,0,0.849,0.849,0,0,0-.264.563v0.316a0.793,0.793,0,0,1,.035.246,16.5,16.5,0,0,1-.14,2.637q-0.211,1.266-.528,2.5-0.351,1.2-.773,2.39-0.493,1.266-1.055,2.532-0.668,1.476-1.406,2.918-0.669,1.3-1.442,2.531a9.949,9.949,0,0,1-1.195,1.441,1.186,1.186,0,0,1-.773.352,2.89,2.89,0,0,1-.985-0.176,2.7,2.7,0,0,1-.773-0.492,4.9,4.9,0,0,1-.809-1.16,11.281,11.281,0,0,1-.914-2.039,19.685,19.685,0,0,1-.668-2.567,13.936,13.936,0,0,1-.281-2.425q0-1.161.07-2.286a8.559,8.559,0,0,1,.317-1.757,7.547,7.547,0,0,1,.527-1.266,7.115,7.115,0,0,1,.844-1.09,10.1,10.1,0,0,1,1.336-1.3,13.865,13.865,0,0,1,1.652-1.16,16.976,16.976,0,0,1,2.145-1.125,17.575,17.575,0,0,1,2.074-.844,6.147,6.147,0,0,1,1.441-.316q0.913-.034,1.828,0a6.513,6.513,0,0,1,1.512.176,2.4,2.4,0,0,1,.7.316,0.192,0.192,0,0,0,.246.035,0.671,0.671,0,0,0,.035.211,0.645,0.645,0,0,0,.036.211v0.035a0.1,0.1,0,0,0-.036.071,0.519,0.519,0,0,0,.176.4,0.611,0.611,0,0,0,.422.158,0.511,0.511,0,0,0,.352-0.123,0.546,0.546,0,0,0,.175-0.334h0.036a0.143,0.143,0,0,0,.035-0.105,1.976,1.976,0,0,0,.176-0.282c0.023-.093.046-0.2,0.07-0.316a1.774,1.774,0,0,0-.422-1.195,3.573,3.573,0,0,0-1.336-.949,7.05,7.05,0,0,0-2.074-.387,20.623,20.623,0,0,0-2.074-.035,7.863,7.863,0,0,0-1.934.386,22.641,22.641,0,0,0-2.356.914q-1.2.564-2.355,1.231a19.214,19.214,0,0,0-1.934,1.371,18.816,18.816,0,0,0-1.546,1.512,9.53,9.53,0,0,0-1.125,1.441,12.082,12.082,0,0,0-.7,1.723,10.275,10.275,0,0,0-.386,2.25q-0.072,1.2-.071,2.426a13.392,13.392,0,0,0,.317,2.882,24.665,24.665,0,0,0,.738,2.813,13.192,13.192,0,0,0,1.09,2.426,7.193,7.193,0,0,0,1.195,1.582,3.991,3.991,0,0,0,1.547.914,4.266,4.266,0,0,0,1.793.246c0.187-.023.363-0.047,0.527-0.07a3.735,3.735,0,0,0,1.477-.915,9.46,9.46,0,0,0,1.406-1.793q0.808-1.335,1.512-2.742,0.738-1.511,1.371-3.093,0.492-1.3.949-2.637,0.107-.316.211-0.668a2.607,2.607,0,0,1,.106-0.422q0.034,0.422.035,0.809c0.023,0.375.047,0.738,0.07,1.089q0.175,1.724.457,3.446,0.246,1.337.563,2.636,0.351,1.266.773,2.5,0.422,1.055.949,2.109a7.424,7.424,0,0,0,1.161,1.687q0.315,0.351.632,0.739l0.035-.035a0.451,0.451,0,0,0,.422.281,0.482,0.482,0,0,0,.369-0.176,0.566,0.566,0,0,0,.159-0.387,0.377,0.377,0,0,0-.106-0.281Zm8.754-26.367a1.4,1.4,0,0,1,1.02.351,0.72,0.72,0,0,1,.211.246,1.111,1.111,0,0,1,.14.352,1.313,1.313,0,0,1-.035.527q-0.246.95-.527,1.864c-0.118.351-.235,0.715-0.352,1.089a0.543,0.543,0,0,1-.14.211,0.639,0.639,0,0,1-.457.211,0.587,0.587,0,0,1-.457-0.193,0.632,0.632,0,0,1-.176-0.44,0.7,0.7,0,0,1,.07-0.316l0.317-.949a6.435,6.435,0,0,0,.351-1.266,7.484,7.484,0,0,0-1.195.668q-1.653,1.126-3.27,2.32a27.307,27.307,0,0,0-2.39,1.864,3.545,3.545,0,0,0-.457.386,3.919,3.919,0,0,0-.739,1.02,2.245,2.245,0,0,0-.14.773,0.774,0.774,0,0,0,.316.457,4.4,4.4,0,0,0,1.371.879,9.7,9.7,0,0,0,2.285.774,38.013,38.013,0,0,0,3.973.7q1.968,0.282,3.9.738a7.383,7.383,0,0,1,2.215.914,3.944,3.944,0,0,1,1.055.914,1.976,1.976,0,0,1,.176.282,3.557,3.557,0,0,1,.316,1.476,3.354,3.354,0,0,1-.351,1.653,3.266,3.266,0,0,1-.247.351,8.994,8.994,0,0,1-1.265,1.231,15.9,15.9,0,0,1-2.32,1.617,17.451,17.451,0,0,1-2.672,1.265,13.214,13.214,0,0,1-2.532.6,19.972,19.972,0,0,1-3.55-.035q-1.232-.071-2.5-0.176h-0.282a0.484,0.484,0,0,1-.457-0.457,0.477,0.477,0,0,1,.141-0.352,0.466,0.466,0,0,1,.281-0.105l0.211-.07q1.3-.175,2.6-0.246,1.651-.141,3.3-0.352a11.422,11.422,0,0,0,2.18-.562,14.223,14.223,0,0,0,2.355-1.055,16.282,16.282,0,0,0,2.145-1.442,5.985,5.985,0,0,0,1.125-1.054,1.537,1.537,0,0,0,.211-0.809,1.774,1.774,0,0,0-.106-0.773,2.711,2.711,0,0,0-.668-0.6,5.773,5.773,0,0,0-1.757-.7q-1.829-.387-3.727-0.6-2.074-.245-4.148-0.633a12.036,12.036,0,0,1-2.672-.808,7.076,7.076,0,0,1-1.934-1.16,2.853,2.853,0,0,1-.844-1.3,4.014,4.014,0,0,1-.105-0.457,3.814,3.814,0,0,1,.246-1.547,5.193,5.193,0,0,1,1.195-1.723,5.032,5.032,0,0,1,.528-0.457q1.265-1.054,2.6-1.968,1.688-1.2,3.41-2.286a5.991,5.991,0,0,1,1.723-.773Zm25.418,4.113a4.241,4.241,0,0,0-1.195-1.3,4.6,4.6,0,0,0-1.723-.773,11.443,11.443,0,0,0-2.531-.141,19.374,19.374,0,0,0-3.48.387,29.445,29.445,0,0,0-3.129.808q-1.583.494-3.094,1.125-1.512.6-2.953,1.266-1.2.6-2.356,1.3a8.475,8.475,0,0,0-1.968,1.582,2.228,2.228,0,0,0-.633.984,1.835,1.835,0,0,0-.035.352,1.1,1.1,0,0,0,.14.387,1.126,1.126,0,0,0,.387.351,1.275,1.275,0,0,0,.668.035q0.738-.1,1.512-0.281c0.07-.023.152-0.047,0.246-0.07,0.4-.094.808-0.188,1.23-0.282V343.2a0.586,0.586,0,0,0,.352-0.193,0.538,0.538,0,0,0,.14-0.369,0.637,0.637,0,0,0-.175-0.44,0.553,0.553,0,0,0-.422-0.193,0.106,0.106,0,0,0-.071.035l-0.035.035v-0.035l-0.562.07c-0.164.024-.34,0.048-0.528,0.071a2.479,2.479,0,0,0,.247-0.211,3.338,3.338,0,0,1,.421-0.281,22.787,22.787,0,0,1,2.215-1.2q1.406-.667,2.848-1.23,1.476-.6,2.953-1.09a27.462,27.462,0,0,1,2.953-.738,18.222,18.222,0,0,1,3.164-.352,12.759,12.759,0,0,1,2.11.106,3.1,3.1,0,0,1,1.019.457,3.315,3.315,0,0,1,.7.808,3.644,3.644,0,0,1,.422,1.16,11.737,11.737,0,0,1,.106,2,6.954,6.954,0,0,1-.422,2.18,17.29,17.29,0,0,1-.985,2.109q-0.772,1.337-1.652,2.567-0.808,1.125-1.652,2.215a13.344,13.344,0,0,1-1.371,1.441q-0.036-.738-0.071-1.477-0.1-1.371-.176-2.777-0.139-2.918-.386-5.836a0.278,0.278,0,0,0-.035-0.105Q366.03,341.3,366,340.7a0.738,0.738,0,0,0-.211-0.422,0.6,0.6,0,0,0-1.019.422q-0.072.7-.106,1.371-0.071,2.954.07,5.907,0.106,2.075.247,4.148,0.035,0.633.07,1.23a1.554,1.554,0,0,0-.176.071c-0.234.094-.469,0.176-0.7,0.246q-0.562.141-1.16,0.246a0.319,0.319,0,0,0-.141-0.035h-0.105v0.035l-0.035-.035h-0.036a0.42,0.42,0,0,0-.421.422,0.4,0.4,0,0,0,.105.263,0.312,0.312,0,0,0,.246.123v0.036c0.093,0.023.176,0.047,0.246,0.07q0.738,0.07,1.442.07a4.5,4.5,0,0,0,.808-0.07q0.034,0.421.035,0.844,0.035,0.492.071,1.019,0.21,3.516.316,7.067,0.105,2.987.106,5.941,0,2.038-.071,4.078a8,8,0,0,1-.211,1.477,0.545,0.545,0,0,1-.14-0.106q-0.353-.282-0.7-0.6a14.061,14.061,0,0,1-1.372-1.512l-0.21-.281a3.075,3.075,0,0,1-.176-0.422l0.035-.035a0.387,0.387,0,0,1,.07-0.106,4.607,4.607,0,0,0,.985-1.23,8.952,8.952,0,0,0,.808-1.723,6.9,6.9,0,0,1,.457-1.16l0.141-.211a0.1,0.1,0,0,1,.035-0.07h-0.035a0.306,0.306,0,0,0,.105-0.211,0.42,0.42,0,0,0-.422-0.422,0.345,0.345,0,0,0-.316.175H364.59a0.1,0.1,0,0,0-.035.071,1.073,1.073,0,0,0-.141.176,9.49,9.49,0,0,0-.738,1.23q-0.421.7-.914,1.371a3.351,3.351,0,0,1-.844.774,1.3,1.3,0,0,0-.844,1.265,2.516,2.516,0,0,0,.352,1.3,3.249,3.249,0,0,0,.281.422,17.141,17.141,0,0,0,1.582,1.828,8.094,8.094,0,0,0,1.336,1.195,0.928,0.928,0,0,0,.316.211,3.986,3.986,0,0,0,.493.176,1.217,1.217,0,0,0,.632-0.105,0.972,0.972,0,0,0,.317-0.211,2.411,2.411,0,0,0,.7-1.2,9.044,9.044,0,0,0,.281-1.968q0.07-2.076.071-4.184,0-2.988-.071-5.977-0.071-3.585-.316-7.136-0.036-.739-0.071-1.442c-0.023-.351-0.047-0.7-0.07-1.054a1.882,1.882,0,0,0,.281-0.176,4.937,4.937,0,0,0,.633-0.422,11.063,11.063,0,0,0,1.723-1.582q0.913-1.125,1.758-2.32,0.95-1.3,1.793-2.707a22.365,22.365,0,0,0,1.125-2.391,8.266,8.266,0,0,0,.492-2.813,13.173,13.173,0,0,0-.141-2.355,5.526,5.526,0,0,0-.668-1.793h0Zm19.969-1.266a0.716,0.716,0,0,1,.141.457,0.605,0.605,0,0,1-.159.422,0.479,0.479,0,0,1-.369.176,0.618,0.618,0,0,1-.281-0.07,0.5,0.5,0,0,0-.211-0.035q-0.387-.071-0.808-0.106-1.2,0-2.426.035a11.523,11.523,0,0,0-2.532.422,7.09,7.09,0,0,0-1.792.985,9.8,9.8,0,0,0-1.512,1.3,16.172,16.172,0,0,0-1.406,1.934,15.5,15.5,0,0,0-1.3,2.566,13.671,13.671,0,0,0-.7,2.426,20.8,20.8,0,0,0-.211,2.953v0.422q0.034,2.145.105,4.359,0.034,0.352.035,0.774,0,0.387-.035.808l-0.07.317a2.887,2.887,0,0,1-.246.457,1.035,1.035,0,0,1-.563.351h-0.176a1.053,1.053,0,0,1-.562-0.175,1.369,1.369,0,0,1-.527-0.879,14.175,14.175,0,0,1-.282-2q-0.141-1.687-.14-3.41,0-2.075-.106-4.078-0.071-2-.281-3.973a25.956,25.956,0,0,1-.176-3.023v-0.528l0.071-1.23a0.7,0.7,0,0,1,.193-0.492,0.563,0.563,0,0,1,.879,0,0.707,0.707,0,0,1,.193.492l0.071,1.23q0.139,1.617.386,3.235c0.071,0.445.141,0.891,0.211,1.335l0.141-.351a18.009,18.009,0,0,1,1.512-2.918,17.689,17.689,0,0,1,1.652-2.18,11.728,11.728,0,0,1,1.863-1.582,9.977,9.977,0,0,1,2.285-1.16,11.555,11.555,0,0,1,2.672-.316h0.317a14.338,14.338,0,0,1,2.671.246,4.79,4.79,0,0,1,1.125.492l0.211,0.211a0.585,0.585,0,0,1,.141.1h0Zm11.25,11.5a0.439,0.439,0,0,0-.316-0.14,0.387,0.387,0,0,0-.387.281h-0.035a3.306,3.306,0,0,1-.246.352c-0.071.117-.141,0.234-0.211,0.351a20.25,20.25,0,0,1-1.477,1.653q-0.984.948-1.969,1.828a14.666,14.666,0,0,1-1.476,1.23,1.628,1.628,0,0,1-.844.317,1.246,1.246,0,0,1-.492-0.106,1.322,1.322,0,0,1-.106-0.281,7.343,7.343,0,0,1-.211-1.406q-0.105-2-.105-3.973,0-2.285-.035-4.606-0.07-1.44-.176-2.882a22.391,22.391,0,0,0-.351-2.461,6.454,6.454,0,0,0-.668-1.723,1.934,1.934,0,0,0-.668-0.633,2.2,2.2,0,0,0-1.336-.211,3.309,3.309,0,0,0-1.793.739,11.508,11.508,0,0,0-1.618,1.582,7.986,7.986,0,0,0-1.265,1.828,2.806,2.806,0,0,0-.211.843,0.331,0.331,0,0,0,0,.211,0.871,0.871,0,0,0,.387.528,0.756,0.756,0,0,0,.457.07,0.671,0.671,0,0,1,.211-0.035v-0.035a0.706,0.706,0,0,0,.386-0.211,0.573,0.573,0,0,0,.176-0.422,0.031,0.031,0,0,0-.035-0.035,0.106,0.106,0,0,0-.035-0.071h0.035l1.3-1.371a10.63,10.63,0,0,1,1.406-1.3,1.443,1.443,0,0,1,.809-0.317h0.035a4.029,4.029,0,0,1,.351,1.055,21.577,21.577,0,0,1,.317,2.144q0.1,1.407.14,2.778,0.035,2.25.035,4.535-0.035,2.074.071,4.148a9,9,0,0,0,.246,1.758,2.787,2.787,0,0,0,1.019,1.547,2.953,2.953,0,0,0,1.793.422,3.69,3.69,0,0,0,2-.809,15.237,15.237,0,0,0,1.582-1.441,27.3,27.3,0,0,0,1.864-2.145,8.638,8.638,0,0,0,1.125-1.757,4.149,4.149,0,0,0,.175-0.493,2.821,2.821,0,0,0,.106-0.421c0.047-.141.093-0.282,0.14-0.422H405.2a0.106,0.106,0,0,1,.035-0.071,0.139,0.139,0,0,0,.036-0.1A0.443,0.443,0,0,0,405.125,347.73Zm-11.25-17.718a0.031,0.031,0,0,1,.035-0.035v0.035l0.035-.035h0.035a2.841,2.841,0,0,0,.458.035,15.655,15.655,0,0,0,2.285-.317,6.872,6.872,0,0,1,.738-0.175c0.187-.047.387-0.094,0.6-0.141a0.67,0.67,0,0,0,.369-0.193,0.552,0.552,0,0,0,.158-0.4,0.6,0.6,0,0,0-.6-0.6h-0.035v0q-0.7-.035-1.371-0.071-1.125-.035-2.285,0l-0.211.071a0.789,0.789,0,0,0-.246.035,0.952,0.952,0,0,0-.6.281,0.815,0.815,0,0,0-.246.6,0.9,0.9,0,0,0,.879.879v0.035Zm18.422-5.555a2.792,2.792,0,0,1,0-.633,0.861,0.861,0,0,1,.457-0.492,0.877,0.877,0,0,1,.6,0,0.782,0.782,0,0,1,.316.246,0.532,0.532,0,0,1,.141.246,7.192,7.192,0,0,1,.316,1.266,31.314,31.314,0,0,1,.422,4.183q0.105,4.746.1,9.493v1.371l1.336-.7q1.406-.633,2.848-1.2a23.153,23.153,0,0,1,2.672-.808,17.369,17.369,0,0,1,2.918-.317l1.582-.07h0.035a0.54,0.54,0,0,1,.527.527,0.48,0.48,0,0,1-.14.352,0.51,0.51,0,0,1-.352.176l-1.547.211a20.157,20.157,0,0,0-2.636.527,21.934,21.934,0,0,0-2.461.914q-1.337.563-2.637,1.266-1.091.6-2.145,1.195,0,3.024.106,6.082,0.175,3.34.457,6.609,0.246,2.357.351,4.711a1.334,1.334,0,0,1-.1.528,0.782,0.782,0,0,1-.246.316,0.83,0.83,0,0,1-.281.176,0.8,0.8,0,0,1-.246.035,1.094,1.094,0,0,1-.844-0.281,4.358,4.358,0,0,1-.317-0.352q-0.879-1.266-1.617-2.566-1.02-1.758-2.109-3.41a14.814,14.814,0,0,0-1.406-1.793q-1.126-1.2-2.286-2.321-0.772-.772-1.617-1.511a0.933,0.933,0,0,0-.246-0.176,1.178,1.178,0,0,1-.457-0.844,1.7,1.7,0,0,1,.211-0.668,2.517,2.517,0,0,1,.316-0.387,12.474,12.474,0,0,1,2.145-1.476l5.273-3.094q0.492-.317.985-0.6v-2.425q0.035-4.712-.035-9.422-0.072-1.758-.246-3.516a0.68,0.68,0,0,1-.071-0.316,4221.44,4221.44,0,0,0-.07-1.055h0Zm0.457,18.914a0.1,0.1,0,0,0-.07.035q-2.6,1.583-5.239,3.164a13.019,13.019,0,0,0-1.336.844l1.266,1.266q1.2,1.2,2.285,2.425a20.442,20.442,0,0,1,1.547,1.969q1.125,1.724,2.18,3.516l0.211,0.351q-0.107-.913-0.176-1.863-0.387-3.339-.563-6.68-0.07-2.531-.1-5.027h0Zm26.894,8.719a0.517,0.517,0,0,1,.317-0.106,0.542,0.542,0,0,1,.369.141,0.418,0.418,0,0,1,.158.316,0.433,0.433,0,0,1-.176.352l-0.1.105c-0.094.048-.2,0.106-0.316,0.176l-0.317.176-2.25,1.266q-1.617.843-3.234,1.617a10.276,10.276,0,0,1-2.285.879c-0.188.023-.387,0.047-0.6,0.07a12.841,12.841,0,0,1-2.32,0,9.066,9.066,0,0,1-2.11-.387,10.653,10.653,0,0,1-1.793-.738,8.341,8.341,0,0,1-1.933-1.617,6.479,6.479,0,0,1-1.3-1.863,5.087,5.087,0,0,1-.316-1.02l-1.126.352c-0.187.023-.386,0.047-0.6,0.07a2.093,2.093,0,0,1-1.09-.317,0.624,0.624,0,0,1-.176-0.175,1.279,1.279,0,0,1-.211-0.387,0.832,0.832,0,0,1-.035-0.422,1.026,1.026,0,0,1,.246-0.562,0.032,0.032,0,0,1,.035-0.036l0.317-.316a0.521,0.521,0,0,0,.105-0.141,0.72,0.72,0,0,1,.528-0.211,0.678,0.678,0,0,1,.492.211,0.421,0.421,0,0,1,.07.106,13.932,13.932,0,0,0,1.371-.563c0.023-.211.047-0.421,0.071-0.632a13.417,13.417,0,0,1,.316-2.567,7.9,7.9,0,0,1,.633-2.039,12.723,12.723,0,0,1,1.09-1.9,16.459,16.459,0,0,1,1.617-1.969,9.552,9.552,0,0,1,1.863-1.617,10.852,10.852,0,0,1,2.145-1.09,7.342,7.342,0,0,1,2.46-.422,7.424,7.424,0,0,1,2.25.281,4.161,4.161,0,0,1,1.829,1.02,2.966,2.966,0,0,1,.808,1.969,4.037,4.037,0,0,1-.351,1.793,6.037,6.037,0,0,1-1.09,1.476,12.794,12.794,0,0,1-1.406,1.336,17.432,17.432,0,0,1-1.793,1.371q-1.266.879-2.532,1.652-1.336.81-2.742,1.547-1.442.739-2.918,1.336a2.7,2.7,0,0,0,.176.985,8.344,8.344,0,0,0,.879,1.3,6.441,6.441,0,0,0,1.406,1.231,8.221,8.221,0,0,0,1.371.668,9.838,9.838,0,0,0,1.653.351,13.773,13.773,0,0,0,1.968.071,10.938,10.938,0,0,0,2.461-.492q1.688-.562,3.305-1.231a21.487,21.487,0,0,0,2.215-1.09,0.874,0.874,0,0,0,.351-0.211Zm-15.925-4.113q0.843-.423,1.722-0.844,1.3-.738,2.567-1.512,1.23-.738,2.426-1.512a17.217,17.217,0,0,0,1.687-1.23q0.633-.528,1.23-1.125a3.359,3.359,0,0,0,.633-0.879,1.961,1.961,0,0,0,.141-0.738,0.477,0.477,0,0,0-.141-0.352,2.557,2.557,0,0,0-.808-0.457,4.27,4.27,0,0,0-1.618-.176,5.8,5.8,0,0,0-1.687.246,9.986,9.986,0,0,0-1.652.844,9.5,9.5,0,0,0-1.477,1.266,13.535,13.535,0,0,0-1.336,1.722,10.421,10.421,0,0,0-.914,1.547,5.687,5.687,0,0,0-.527,1.582,12.582,12.582,0,0,0-.246,1.618h0Z" transform="translate(-260.469 -323.281)"/>
</svg>
