<?xml version="1.0" standalone="no"?><!DOCTYPE svg PUBLIC "-//W3C//DTD SVG 1.1//EN" "http://www.w3.org/Graphics/SVG/1.1/DTD/svg11.dtd"><svg t="1612336463480" class="icon" viewBox="0 0 1024 1024" version="1.1" xmlns="http://www.w3.org/2000/svg" p-id="4265" xmlns:xlink="http://www.w3.org/1999/xlink" width="200" height="200"><defs><style type="text/css"></style></defs><path d="M170.496 85.504H384c47.104 0 85.504 38.4 85.504 85.504V384c0 47.104-38.4 85.504-85.504 85.504H170.496c-47.104 0-85.504-38.4-85.504-85.504V170.496c0.512-47.104 38.4-84.992 85.504-84.992z m0 468.992H384c47.104 0 85.504 38.4 85.504 85.504v213.504c0 47.104-38.4 85.504-85.504 85.504H170.496c-47.104 0-85.504-38.4-85.504-85.504V640c0.512-47.104 38.4-85.504 85.504-85.504z m469.504 0h213.504c47.104 0 85.504 38.4 85.504 85.504v213.504c0 47.104-38.4 85.504-85.504 85.504H640c-47.104 0-85.504-38.4-85.504-85.504V640c0-47.104 38.4-85.504 85.504-85.504z" fill="#B3CBF1" p-id="4266"></path><path d="M565.76 217.088L686.08 96.256c33.28-33.28 87.552-33.28 120.832 0l120.832 120.832c33.28 33.28 33.28 87.552 0 120.832l-120.832 120.832c-33.28 33.28-87.552 33.28-120.832 0L565.248 337.92c-32.768-33.792-32.768-87.552 0.512-120.832z" fill="#5095FD" p-id="4267"></path></svg>