<?xml version="1.0" standalone="no"?><!DOCTYPE svg PUBLIC "-//W3C//DTD SVG 1.1//EN" "http://www.w3.org/Graphics/SVG/1.1/DTD/svg11.dtd"><svg t="1620372555281" class="icon" viewBox="0 0 1024 1024" version="1.1" xmlns="http://www.w3.org/2000/svg" p-id="1573" xmlns:xlink="http://www.w3.org/1999/xlink" width="200" height="200"><defs><style type="text/css"></style></defs><path d="M783.6672 403.4048l-76.2368 45.312c-2.8672 1.6896-6.4-0.4096-6.4-3.7888v-46.8992c0-66.8672-52.6336-121.088-117.5552-121.088H302.1824c-64.9216 0-117.5552 54.2208-117.5552 121.088v225.0752c0 66.8672 52.6336 121.088 117.5552 121.088h281.344c64.9216 0 117.5552-54.2208 117.5552-121.088v-46.8992c0-3.3792 3.5328-5.4784 6.4-3.7888l76.2368 45.312c15.6672 9.3184 35.2768-2.3552 35.2768-20.992V424.3456c-0.0512-18.6368-19.6608-30.2592-35.328-20.9408z" fill="#ffe048" p-id="1574"></path><path d="M602.7264 827.392H271.7696c-93.4912 0-169.5744-78.08-169.5744-174.08V367.7696c0-96 76.0832-174.08 169.5744-174.08h330.9568c25.7024 0 50.432 5.7856 73.4208 17.1008 10.1376 5.0176 14.2848 17.3056 9.3184 27.4432a20.54656 20.54656 0 0 1-27.4432 9.3184 123.88352 123.88352 0 0 0-55.296-12.9024H271.7696c-70.912 0-128.6144 59.6992-128.6144 133.12v285.4912c0 73.4208 57.7024 133.12 128.6144 133.12h330.9568c70.912 0 128.6144-59.6992 128.6144-133.12v-59.4944c0-9.3696 5.0176-18.0736 13.1584-22.6816a25.7536 25.7536 0 0 1 25.9072 0.256l96.7168 57.5488c3.584 2.1504 6.7072 1.2288 8.704 0.1024 1.536-0.8704 5.0688-3.4816 5.0688-9.1136V401.2032c0-5.632-3.5328-8.2432-5.0688-9.1136-1.9968-1.1264-5.12-2.048-8.7552 0.1024l-96.7168 57.4976c-7.936 4.7104-17.8688 4.8128-25.9072 0.256-8.0896-4.608-13.1584-13.312-13.1584-22.6816V367.7696c0-18.1248-3.4304-35.6352-10.24-52.1728a20.48 20.48 0 0 1 11.1104-26.7264 20.48 20.48 0 0 1 26.7264 11.1104c8.8576 21.4528 13.312 44.2368 13.312 67.7376v33.1264l73.8816-43.9296c15.5648-9.2672 34.2016-9.4208 49.92-0.512 16.128 9.1648 25.7536 25.9072 25.7536 44.6976v218.6752c0 18.7904-9.6256 35.5328-25.7536 44.6976-15.7184 8.96-34.3552 8.7552-49.92-0.4608l-73.8816-43.9296v33.1264c0.1024 96.1024-75.9296 174.1824-169.472 174.1824z" fill="#55524F" p-id="1575"></path><path d="M404.0704 648.7552c-14.08 0-28.16-3.6864-40.96-11.1104-25.6512-14.7968-40.96-41.3184-40.96-70.9632V454.4c0-29.5936 15.3088-56.1152 40.96-70.9632 25.6512-14.7968 56.2688-14.7968 81.92 0l97.2288 56.1152c25.6512 14.7968 40.96 41.3184 40.96 70.9632 0 29.6448-15.3088 56.1152-40.96 70.9632l-97.2288 56.1152c-12.8 7.424-26.88 11.1616-40.96 11.1616z m0-235.3664c-7.0656 0-14.08 1.8432-20.48 5.5296-12.8 7.424-20.48 20.6848-20.48 35.4816v112.2816c0 14.7968 7.68 28.0576 20.48 35.4816a40.448 40.448 0 0 0 40.96 0l97.2288-56.1152c12.8-7.424 20.48-20.6848 20.48-35.4816 0-14.7968-7.68-28.0576-20.48-35.4816L424.5504 418.9184a40.8832 40.8832 0 0 0-20.48-5.5296z" fill="#55524F" p-id="1576"></path></svg>